<svg width="29" height="29" viewBox="0 0 29 29" fill="none" xmlns="http://www.w3.org/2000/svg">
<mask id="path-1-outside-1_138_8286" maskUnits="userSpaceOnUse" x="3.49988" y="2.25" width="26" height="26" fill="black">
<rect fill="white" x="3.49988" y="2.25" width="26" height="26"/>
<path d="M23.6725 17.8241C25.525 17.2241 26.6425 15.4316 26.4925 13.5641C26.4843 13.4784 26.4483 13.3976 26.3902 13.334C26.332 13.2704 26.2547 13.2275 26.17 13.2116C26.17 13.2116 25.5025 13.0691 25.3525 13.0391C25.2775 13.0241 25.2475 12.9266 25.2925 12.8741C25.39 12.7691 25.855 12.2441 25.855 12.2441C25.975 12.1166 25.9975 11.9141 25.9075 11.7641C24.94 10.1666 22.9825 9.37162 21.1225 9.97912C20.59 10.1516 20.125 10.4666 19.72 10.8641C19.975 10.3541 20.125 9.82162 20.125 9.25912C20.125 7.30912 18.7675 5.68912 16.945 5.26162C16.8602 5.24446 16.7721 5.25398 16.6928 5.2889C16.6136 5.32382 16.5471 5.38241 16.5025 5.45662C16.5025 5.45662 16.1575 6.04912 16.0825 6.18412C16.045 6.25162 15.94 6.24412 15.91 6.19162C15.835 6.06412 15.49 5.45662 15.49 5.45662C15.4 5.30662 15.22 5.21662 15.055 5.26162C13.24 5.68162 11.875 7.30162 11.875 9.25162C11.875 9.81412 12.0325 10.3466 12.28 10.8566C11.875 10.4591 11.4175 10.1516 10.885 9.97912C9.02505 9.37162 7.06755 10.1666 6.10005 11.7641C6.01005 11.9141 6.03255 12.1091 6.15255 12.2441C6.15255 12.2441 6.61005 12.7541 6.71505 12.8666C6.76755 12.9191 6.73005 13.0241 6.66255 13.0391L5.83755 13.2116C5.66505 13.2491 5.53005 13.3916 5.51505 13.5641C5.43545 14.4882 5.67077 15.4121 6.18275 16.1855C6.69473 16.9589 7.45327 17.5364 8.33505 17.8241C8.87505 17.9966 9.43005 18.0191 10 17.9291C9.49005 18.1916 9.04005 18.5366 8.71005 18.9941C7.56255 20.5691 7.71255 22.6766 8.93505 24.0941C9.04755 24.2291 9.24255 24.2666 9.40755 24.1916C9.40755 24.1916 10.03 23.9141 10.1725 23.8466C10.24 23.8166 10.3225 23.8766 10.315 23.9441L10.225 24.7841C10.21 24.9566 10.3 25.1366 10.465 25.2041C12.19 25.9241 14.2375 25.4141 15.385 23.8391C15.715 23.3816 15.9025 22.8641 16 22.3016C16.0975 22.8641 16.285 23.3891 16.615 23.8391C17.7625 25.4141 19.81 25.9241 21.535 25.2041C21.7 25.1366 21.79 24.9641 21.775 24.7841C21.775 24.7841 21.7 24.1016 21.685 23.9516C21.6775 23.8766 21.76 23.8166 21.8275 23.8466L22.6 24.1916C22.7575 24.2666 22.96 24.2291 23.0725 24.0941C24.295 22.6766 24.445 20.5691 23.2975 18.9941C22.9675 18.5366 22.5175 18.1991 22.0075 17.9291C22.5775 18.0191 23.1325 17.9966 23.6725 17.8241ZM17.3755 16.9661L17.9403 17.7461C18.1045 17.7292 18.2698 17.7669 18.4104 17.8534C18.551 17.94 18.6591 18.0705 18.718 18.2248C18.7769 18.379 18.7832 18.5484 18.736 18.7066C18.6888 18.8648 18.5907 19.003 18.4569 19.0998C18.3231 19.1966 18.1612 19.2465 17.9961 19.2419C17.8311 19.2372 17.6722 19.1782 17.5441 19.074C17.416 18.9699 17.3258 18.8263 17.2876 18.6657C17.2494 18.5051 17.2653 18.3363 17.3328 18.1856L16.768 17.4064C16.5285 17.5148 16.2685 17.5708 16.0055 17.5705C15.7425 17.5702 15.4827 17.5138 15.2433 17.4049L14.6748 18.1871C14.7419 18.338 14.7574 18.5067 14.7188 18.6673C14.6802 18.8278 14.5898 18.9711 14.4614 19.075C14.3331 19.1788 14.1741 19.2375 14.009 19.2418C13.844 19.246 13.6822 19.1958 13.5486 19.0987C13.4151 19.0016 13.3173 18.8632 13.2704 18.7049C13.2235 18.5466 13.2302 18.3772 13.2894 18.2231C13.3486 18.069 13.457 17.9387 13.5978 17.8525C13.7386 17.7662 13.9039 17.7288 14.068 17.7461L14.6373 16.9639C14.4599 16.7698 14.326 16.54 14.2447 16.29C14.1633 16.04 14.1363 15.7754 14.1655 15.5141L13.2468 15.2164C13.1241 15.3269 12.9684 15.3938 12.8038 15.4067C12.6392 15.4197 12.4749 15.378 12.3365 15.288C12.198 15.1981 12.0931 15.065 12.0379 14.9094C11.9828 14.7538 11.9806 14.5843 12.0316 14.4273C12.0827 14.2702 12.1841 14.1344 12.3201 14.0409C12.4562 13.9474 12.6193 13.9014 12.7842 13.9101C12.9491 13.9187 13.1065 13.9815 13.232 14.0887C13.3576 14.196 13.4442 14.3416 13.4785 14.5031L14.3965 14.8009C14.5269 14.5719 14.7046 14.3734 14.9177 14.2184C15.1308 14.0635 15.3745 13.9558 15.6325 13.9024V12.9394C15.4896 12.8568 15.3778 12.7294 15.3146 12.5769C15.2515 12.4243 15.2404 12.2552 15.2831 12.0957C15.3258 11.9363 15.42 11.7953 15.551 11.6948C15.682 11.5943 15.8424 11.5399 16.0075 11.5399C16.1726 11.5399 16.3331 11.5943 16.4641 11.6948C16.5951 11.7953 16.6893 11.9363 16.732 12.0957C16.7747 12.2552 16.7636 12.4243 16.7005 12.5769C16.6373 12.7294 16.5255 12.8568 16.3825 12.9394V13.9024C16.9113 14.0111 17.3575 14.3449 17.617 14.7994L18.5283 14.5039C18.5624 14.3423 18.6488 14.1965 18.7742 14.089C18.8996 13.9816 19.0569 13.9186 19.2218 13.9097C19.3867 13.9008 19.5499 13.9466 19.6861 14.0399C19.8223 14.1333 19.9239 14.2689 19.9752 14.4259C20.0264 14.5829 20.0244 14.7524 19.9694 14.9081C19.9145 15.0638 19.8097 15.1971 19.6713 15.2872C19.5329 15.3772 19.3687 15.4191 19.204 15.4063C19.0394 15.3935 18.8836 15.3268 18.7608 15.2164L17.8488 15.5134C17.8783 15.7754 17.8513 16.0407 17.7697 16.2914C17.6881 16.5421 17.5537 16.7717 17.3755 16.9661Z"/>
</mask>
<path d="M23.6725 17.8241C25.525 17.2241 26.6425 15.4316 26.4925 13.5641C26.4843 13.4784 26.4483 13.3976 26.3902 13.334C26.332 13.2704 26.2547 13.2275 26.17 13.2116C26.17 13.2116 25.5025 13.0691 25.3525 13.0391C25.2775 13.0241 25.2475 12.9266 25.2925 12.8741C25.39 12.7691 25.855 12.2441 25.855 12.2441C25.975 12.1166 25.9975 11.9141 25.9075 11.7641C24.94 10.1666 22.9825 9.37162 21.1225 9.97912C20.59 10.1516 20.125 10.4666 19.72 10.8641C19.975 10.3541 20.125 9.82162 20.125 9.25912C20.125 7.30912 18.7675 5.68912 16.945 5.26162C16.8602 5.24446 16.7721 5.25398 16.6928 5.2889C16.6136 5.32382 16.5471 5.38241 16.5025 5.45662C16.5025 5.45662 16.1575 6.04912 16.0825 6.18412C16.045 6.25162 15.94 6.24412 15.91 6.19162C15.835 6.06412 15.49 5.45662 15.49 5.45662C15.4 5.30662 15.22 5.21662 15.055 5.26162C13.24 5.68162 11.875 7.30162 11.875 9.25162C11.875 9.81412 12.0325 10.3466 12.28 10.8566C11.875 10.4591 11.4175 10.1516 10.885 9.97912C9.02505 9.37162 7.06755 10.1666 6.10005 11.7641C6.01005 11.9141 6.03255 12.1091 6.15255 12.2441C6.15255 12.2441 6.61005 12.7541 6.71505 12.8666C6.76755 12.9191 6.73005 13.0241 6.66255 13.0391L5.83755 13.2116C5.66505 13.2491 5.53005 13.3916 5.51505 13.5641C5.43545 14.4882 5.67077 15.4121 6.18275 16.1855C6.69473 16.9589 7.45327 17.5364 8.33505 17.8241C8.87505 17.9966 9.43005 18.0191 10 17.9291C9.49005 18.1916 9.04005 18.5366 8.71005 18.9941C7.56255 20.5691 7.71255 22.6766 8.93505 24.0941C9.04755 24.2291 9.24255 24.2666 9.40755 24.1916C9.40755 24.1916 10.03 23.9141 10.1725 23.8466C10.24 23.8166 10.3225 23.8766 10.315 23.9441L10.225 24.7841C10.21 24.9566 10.3 25.1366 10.465 25.2041C12.19 25.9241 14.2375 25.4141 15.385 23.8391C15.715 23.3816 15.9025 22.8641 16 22.3016C16.0975 22.8641 16.285 23.3891 16.615 23.8391C17.7625 25.4141 19.81 25.9241 21.535 25.2041C21.7 25.1366 21.79 24.9641 21.775 24.7841C21.775 24.7841 21.7 24.1016 21.685 23.9516C21.6775 23.8766 21.76 23.8166 21.8275 23.8466L22.6 24.1916C22.7575 24.2666 22.96 24.2291 23.0725 24.0941C24.295 22.6766 24.445 20.5691 23.2975 18.9941C22.9675 18.5366 22.5175 18.1991 22.0075 17.9291C22.5775 18.0191 23.1325 17.9966 23.6725 17.8241ZM17.3755 16.9661L17.9403 17.7461C18.1045 17.7292 18.2698 17.7669 18.4104 17.8534C18.551 17.94 18.6591 18.0705 18.718 18.2248C18.7769 18.379 18.7832 18.5484 18.736 18.7066C18.6888 18.8648 18.5907 19.003 18.4569 19.0998C18.3231 19.1966 18.1612 19.2465 17.9961 19.2419C17.8311 19.2372 17.6722 19.1782 17.5441 19.074C17.416 18.9699 17.3258 18.8263 17.2876 18.6657C17.2494 18.5051 17.2653 18.3363 17.3328 18.1856L16.768 17.4064C16.5285 17.5148 16.2685 17.5708 16.0055 17.5705C15.7425 17.5702 15.4827 17.5138 15.2433 17.4049L14.6748 18.1871C14.7419 18.338 14.7574 18.5067 14.7188 18.6673C14.6802 18.8278 14.5898 18.9711 14.4614 19.075C14.3331 19.1788 14.1741 19.2375 14.009 19.2418C13.844 19.246 13.6822 19.1958 13.5486 19.0987C13.4151 19.0016 13.3173 18.8632 13.2704 18.7049C13.2235 18.5466 13.2302 18.3772 13.2894 18.2231C13.3486 18.069 13.457 17.9387 13.5978 17.8525C13.7386 17.7662 13.9039 17.7288 14.068 17.7461L14.6373 16.9639C14.4599 16.7698 14.326 16.54 14.2447 16.29C14.1633 16.04 14.1363 15.7754 14.1655 15.5141L13.2468 15.2164C13.1241 15.3269 12.9684 15.3938 12.8038 15.4067C12.6392 15.4197 12.4749 15.378 12.3365 15.288C12.198 15.1981 12.0931 15.065 12.0379 14.9094C11.9828 14.7538 11.9806 14.5843 12.0316 14.4273C12.0827 14.2702 12.1841 14.1344 12.3201 14.0409C12.4562 13.9474 12.6193 13.9014 12.7842 13.9101C12.9491 13.9187 13.1065 13.9815 13.232 14.0887C13.3576 14.196 13.4442 14.3416 13.4785 14.5031L14.3965 14.8009C14.5269 14.5719 14.7046 14.3734 14.9177 14.2184C15.1308 14.0635 15.3745 13.9558 15.6325 13.9024V12.9394C15.4896 12.8568 15.3778 12.7294 15.3146 12.5769C15.2515 12.4243 15.2404 12.2552 15.2831 12.0957C15.3258 11.9363 15.42 11.7953 15.551 11.6948C15.682 11.5943 15.8424 11.5399 16.0075 11.5399C16.1726 11.5399 16.3331 11.5943 16.4641 11.6948C16.5951 11.7953 16.6893 11.9363 16.732 12.0957C16.7747 12.2552 16.7636 12.4243 16.7005 12.5769C16.6373 12.7294 16.5255 12.8568 16.3825 12.9394V13.9024C16.9113 14.0111 17.3575 14.3449 17.617 14.7994L18.5283 14.5039C18.5624 14.3423 18.6488 14.1965 18.7742 14.089C18.8996 13.9816 19.0569 13.9186 19.2218 13.9097C19.3867 13.9008 19.5499 13.9466 19.6861 14.0399C19.8223 14.1333 19.9239 14.2689 19.9752 14.4259C20.0264 14.5829 20.0244 14.7524 19.9694 14.9081C19.9145 15.0638 19.8097 15.1971 19.6713 15.2872C19.5329 15.3772 19.3687 15.4191 19.204 15.4063C19.0394 15.3935 18.8836 15.3268 18.7608 15.2164L17.8488 15.5134C17.8783 15.7754 17.8513 16.0407 17.7697 16.2914C17.6881 16.5421 17.5537 16.7717 17.3755 16.9661Z" fill="#E8C4DA"/>
<path d="M23.6725 17.8241C25.525 17.2241 26.6425 15.4316 26.4925 13.5641C26.4843 13.4784 26.4483 13.3976 26.3902 13.334C26.332 13.2704 26.2547 13.2275 26.17 13.2116C26.17 13.2116 25.5025 13.0691 25.3525 13.0391C25.2775 13.0241 25.2475 12.9266 25.2925 12.8741C25.39 12.7691 25.855 12.2441 25.855 12.2441C25.975 12.1166 25.9975 11.9141 25.9075 11.7641C24.94 10.1666 22.9825 9.37162 21.1225 9.97912C20.59 10.1516 20.125 10.4666 19.72 10.8641C19.975 10.3541 20.125 9.82162 20.125 9.25912C20.125 7.30912 18.7675 5.68912 16.945 5.26162C16.8602 5.24446 16.7721 5.25398 16.6928 5.2889C16.6136 5.32382 16.5471 5.38241 16.5025 5.45662C16.5025 5.45662 16.1575 6.04912 16.0825 6.18412C16.045 6.25162 15.94 6.24412 15.91 6.19162C15.835 6.06412 15.49 5.45662 15.49 5.45662C15.4 5.30662 15.22 5.21662 15.055 5.26162C13.24 5.68162 11.875 7.30162 11.875 9.25162C11.875 9.81412 12.0325 10.3466 12.28 10.8566C11.875 10.4591 11.4175 10.1516 10.885 9.97912C9.02505 9.37162 7.06755 10.1666 6.10005 11.7641C6.01005 11.9141 6.03255 12.1091 6.15255 12.2441C6.15255 12.2441 6.61005 12.7541 6.71505 12.8666C6.76755 12.9191 6.73005 13.0241 6.66255 13.0391L5.83755 13.2116C5.66505 13.2491 5.53005 13.3916 5.51505 13.5641C5.43545 14.4882 5.67077 15.4121 6.18275 16.1855C6.69473 16.9589 7.45327 17.5364 8.33505 17.8241C8.87505 17.9966 9.43005 18.0191 10 17.9291C9.49005 18.1916 9.04005 18.5366 8.71005 18.9941C7.56255 20.5691 7.71255 22.6766 8.93505 24.0941C9.04755 24.2291 9.24255 24.2666 9.40755 24.1916C9.40755 24.1916 10.03 23.9141 10.1725 23.8466C10.24 23.8166 10.3225 23.8766 10.315 23.9441L10.225 24.7841C10.21 24.9566 10.3 25.1366 10.465 25.2041C12.19 25.9241 14.2375 25.4141 15.385 23.8391C15.715 23.3816 15.9025 22.8641 16 22.3016C16.0975 22.8641 16.285 23.3891 16.615 23.8391C17.7625 25.4141 19.81 25.9241 21.535 25.2041C21.7 25.1366 21.79 24.9641 21.775 24.7841C21.775 24.7841 21.7 24.1016 21.685 23.9516C21.6775 23.8766 21.76 23.8166 21.8275 23.8466L22.6 24.1916C22.7575 24.2666 22.96 24.2291 23.0725 24.0941C24.295 22.6766 24.445 20.5691 23.2975 18.9941C22.9675 18.5366 22.5175 18.1991 22.0075 17.9291C22.5775 18.0191 23.1325 17.9966 23.6725 17.8241ZM17.3755 16.9661L17.9403 17.7461C18.1045 17.7292 18.2698 17.7669 18.4104 17.8534C18.551 17.94 18.6591 18.0705 18.718 18.2248C18.7769 18.379 18.7832 18.5484 18.736 18.7066C18.6888 18.8648 18.5907 19.003 18.4569 19.0998C18.3231 19.1966 18.1612 19.2465 17.9961 19.2419C17.8311 19.2372 17.6722 19.1782 17.5441 19.074C17.416 18.9699 17.3258 18.8263 17.2876 18.6657C17.2494 18.5051 17.2653 18.3363 17.3328 18.1856L16.768 17.4064C16.5285 17.5148 16.2685 17.5708 16.0055 17.5705C15.7425 17.5702 15.4827 17.5138 15.2433 17.4049L14.6748 18.1871C14.7419 18.338 14.7574 18.5067 14.7188 18.6673C14.6802 18.8278 14.5898 18.9711 14.4614 19.075C14.3331 19.1788 14.1741 19.2375 14.009 19.2418C13.844 19.246 13.6822 19.1958 13.5486 19.0987C13.4151 19.0016 13.3173 18.8632 13.2704 18.7049C13.2235 18.5466 13.2302 18.3772 13.2894 18.2231C13.3486 18.069 13.457 17.9387 13.5978 17.8525C13.7386 17.7662 13.9039 17.7288 14.068 17.7461L14.6373 16.9639C14.4599 16.7698 14.326 16.54 14.2447 16.29C14.1633 16.04 14.1363 15.7754 14.1655 15.5141L13.2468 15.2164C13.1241 15.3269 12.9684 15.3938 12.8038 15.4067C12.6392 15.4197 12.4749 15.378 12.3365 15.288C12.198 15.1981 12.0931 15.065 12.0379 14.9094C11.9828 14.7538 11.9806 14.5843 12.0316 14.4273C12.0827 14.2702 12.1841 14.1344 12.3201 14.0409C12.4562 13.9474 12.6193 13.9014 12.7842 13.9101C12.9491 13.9187 13.1065 13.9815 13.232 14.0887C13.3576 14.196 13.4442 14.3416 13.4785 14.5031L14.3965 14.8009C14.5269 14.5719 14.7046 14.3734 14.9177 14.2184C15.1308 14.0635 15.3745 13.9558 15.6325 13.9024V12.9394C15.4896 12.8568 15.3778 12.7294 15.3146 12.5769C15.2515 12.4243 15.2404 12.2552 15.2831 12.0957C15.3258 11.9363 15.42 11.7953 15.551 11.6948C15.682 11.5943 15.8424 11.5399 16.0075 11.5399C16.1726 11.5399 16.3331 11.5943 16.4641 11.6948C16.5951 11.7953 16.6893 11.9363 16.732 12.0957C16.7747 12.2552 16.7636 12.4243 16.7005 12.5769C16.6373 12.7294 16.5255 12.8568 16.3825 12.9394V13.9024C16.9113 14.0111 17.3575 14.3449 17.617 14.7994L18.5283 14.5039C18.5624 14.3423 18.6488 14.1965 18.7742 14.089C18.8996 13.9816 19.0569 13.9186 19.2218 13.9097C19.3867 13.9008 19.5499 13.9466 19.6861 14.0399C19.8223 14.1333 19.9239 14.2689 19.9752 14.4259C20.0264 14.5829 20.0244 14.7524 19.9694 14.9081C19.9145 15.0638 19.8097 15.1971 19.6713 15.2872C19.5329 15.3772 19.3687 15.4191 19.204 15.4063C19.0394 15.3935 18.8836 15.3268 18.7608 15.2164L17.8488 15.5134C17.8783 15.7754 17.8513 16.0407 17.7697 16.2914C17.6881 16.5421 17.5537 16.7717 17.3755 16.9661Z" stroke="#E8C4DA" stroke-width="4" mask="url(#path-1-outside-1_138_8286)"/>
<circle cx="12.76" cy="12.7202" r="4.56" fill="#E8C4DA"/>
<mask id="path-3-outside-2_138_8286" maskUnits="userSpaceOnUse" x="0.499878" y="-0.75" width="26" height="26" fill="black">
<rect fill="white" x="0.499878" y="-0.75" width="26" height="26"/>
<path d="M20.6725 14.8241C22.525 14.2241 23.6425 12.4316 23.4925 10.5641C23.4843 10.4784 23.4483 10.3976 23.3902 10.334C23.332 10.2704 23.2547 10.2275 23.17 10.2116C23.17 10.2116 22.5025 10.0691 22.3525 10.0391C22.2775 10.0241 22.2475 9.92662 22.2925 9.87412C22.39 9.76912 22.855 9.24412 22.855 9.24412C22.975 9.11662 22.9975 8.91412 22.9075 8.76412C21.94 7.16662 19.9825 6.37162 18.1225 6.97912C17.59 7.15162 17.125 7.46662 16.72 7.86412C16.975 7.35412 17.125 6.82162 17.125 6.25912C17.125 4.30912 15.7675 2.68912 13.945 2.26162C13.8602 2.24446 13.7721 2.25398 13.6928 2.2889C13.6136 2.32382 13.5471 2.38241 13.5025 2.45662C13.5025 2.45662 13.1575 3.04912 13.0825 3.18412C13.045 3.25162 12.94 3.24412 12.91 3.19162C12.835 3.06412 12.49 2.45662 12.49 2.45662C12.4 2.30662 12.22 2.21662 12.055 2.26162C10.24 2.68162 8.87505 4.30162 8.87505 6.25162C8.87505 6.81412 9.03255 7.34662 9.28005 7.85662C8.87505 7.45912 8.41755 7.15162 7.88505 6.97912C6.02505 6.37162 4.06755 7.16662 3.10005 8.76412C3.01005 8.91412 3.03255 9.10912 3.15255 9.24412C3.15255 9.24412 3.61005 9.75412 3.71505 9.86662C3.76755 9.91912 3.73005 10.0241 3.66255 10.0391L2.83755 10.2116C2.66505 10.2491 2.53005 10.3916 2.51505 10.5641C2.43545 11.4882 2.67077 12.4121 3.18275 13.1855C3.69473 13.9589 4.45327 14.5364 5.33505 14.8241C5.87505 14.9966 6.43005 15.0191 7.00005 14.9291C6.49005 15.1916 6.04005 15.5366 5.71005 15.9941C4.56255 17.5691 4.71255 19.6766 5.93505 21.0941C6.04755 21.2291 6.24255 21.2666 6.40755 21.1916C6.40755 21.1916 7.03005 20.9141 7.17255 20.8466C7.24005 20.8166 7.32255 20.8766 7.31505 20.9441L7.22505 21.7841C7.21005 21.9566 7.30005 22.1366 7.46505 22.2041C9.19005 22.9241 11.2375 22.4141 12.385 20.8391C12.715 20.3816 12.9025 19.8641 13 19.3016C13.0975 19.8641 13.285 20.3891 13.615 20.8391C14.7625 22.4141 16.81 22.9241 18.535 22.2041C18.7 22.1366 18.79 21.9641 18.775 21.7841C18.775 21.7841 18.7 21.1016 18.685 20.9516C18.6775 20.8766 18.76 20.8166 18.8275 20.8466L19.6 21.1916C19.7575 21.2666 19.96 21.2291 20.0725 21.0941C21.295 19.6766 21.445 17.5691 20.2975 15.9941C19.9675 15.5366 19.5175 15.1991 19.0075 14.9291C19.5775 15.0191 20.1325 14.9966 20.6725 14.8241ZM14.3755 13.9661L14.9403 14.7461C15.1045 14.7292 15.2698 14.7669 15.4104 14.8534C15.551 14.94 15.6591 15.0705 15.718 15.2248C15.7769 15.379 15.7832 15.5484 15.736 15.7066C15.6888 15.8648 15.5907 16.003 15.4569 16.0998C15.3231 16.1966 15.1612 16.2465 14.9961 16.2419C14.8311 16.2372 14.6722 16.1782 14.5441 16.074C14.416 15.9699 14.3258 15.8263 14.2876 15.6657C14.2494 15.5051 14.2653 15.3363 14.3328 15.1856L13.768 14.4064C13.5285 14.5148 13.2685 14.5708 13.0055 14.5705C12.7425 14.5702 12.4827 14.5138 12.2433 14.4049L11.6748 15.1871C11.7419 15.338 11.7574 15.5067 11.7188 15.6673C11.6802 15.8278 11.5898 15.9711 11.4614 16.075C11.3331 16.1788 11.1741 16.2375 11.009 16.2418C10.844 16.246 10.6822 16.1958 10.5486 16.0987C10.4151 16.0016 10.3173 15.8632 10.2704 15.7049C10.2235 15.5466 10.2302 15.3772 10.2894 15.2231C10.3486 15.069 10.457 14.9387 10.5978 14.8525C10.7386 14.7662 10.9039 14.7288 11.068 14.7461L11.6373 13.9639C11.4599 13.7698 11.326 13.54 11.2447 13.29C11.1633 13.04 11.1363 12.7754 11.1655 12.5141L10.2468 12.2164C10.1241 12.3269 9.96838 12.3938 9.80379 12.4067C9.6392 12.4197 9.47493 12.378 9.33646 12.288C9.19799 12.1981 9.09306 12.065 9.03795 11.9094C8.98284 11.7538 8.98062 11.5843 9.03164 11.4273C9.08266 11.2702 9.18406 11.1344 9.32013 11.0409C9.4562 10.9474 9.61932 10.9014 9.78419 10.9101C9.94907 10.9187 10.1065 10.9815 10.232 11.0887C10.3576 11.196 10.4442 11.3416 10.4785 11.5031L11.3965 11.8009C11.5269 11.5719 11.7046 11.3734 11.9177 11.2184C12.1308 11.0635 12.3745 10.9558 12.6325 10.9024V9.93937C12.4896 9.85682 12.3778 9.7294 12.3146 9.57687C12.2515 9.42433 12.2404 9.25522 12.2831 9.09574C12.3258 8.93627 12.42 8.79535 12.551 8.69484C12.682 8.59433 12.8424 8.53986 13.0075 8.53986C13.1726 8.53986 13.3331 8.59433 13.4641 8.69484C13.5951 8.79535 13.6893 8.93627 13.732 9.09574C13.7747 9.25522 13.7636 9.42433 13.7005 9.57687C13.6373 9.7294 13.5255 9.85682 13.3825 9.93937V10.9024C13.9113 11.0111 14.3575 11.3449 14.617 11.7994L15.5283 11.5039C15.5624 11.3423 15.6488 11.1965 15.7742 11.089C15.8996 10.9816 16.0569 10.9186 16.2218 10.9097C16.3867 10.9008 16.5499 10.9466 16.6861 11.0399C16.8223 11.1333 16.9239 11.2689 16.9752 11.4259C17.0264 11.5829 17.0244 11.7524 16.9694 11.9081C16.9145 12.0638 16.8097 12.1971 16.6713 12.2872C16.5329 12.3772 16.3687 12.4191 16.204 12.4063C16.0394 12.3935 15.8836 12.3268 15.7608 12.2164L14.8488 12.5134C14.8783 12.7754 14.8513 13.0407 14.7697 13.2914C14.6881 13.5421 14.5537 13.7717 14.3755 13.9661Z"/>
</mask>
<path d="M20.6725 14.8241C22.525 14.2241 23.6425 12.4316 23.4925 10.5641C23.4843 10.4784 23.4483 10.3976 23.3902 10.334C23.332 10.2704 23.2547 10.2275 23.17 10.2116C23.17 10.2116 22.5025 10.0691 22.3525 10.0391C22.2775 10.0241 22.2475 9.92662 22.2925 9.87412C22.39 9.76912 22.855 9.24412 22.855 9.24412C22.975 9.11662 22.9975 8.91412 22.9075 8.76412C21.94 7.16662 19.9825 6.37162 18.1225 6.97912C17.59 7.15162 17.125 7.46662 16.72 7.86412C16.975 7.35412 17.125 6.82162 17.125 6.25912C17.125 4.30912 15.7675 2.68912 13.945 2.26162C13.8602 2.24446 13.7721 2.25398 13.6928 2.2889C13.6136 2.32382 13.5471 2.38241 13.5025 2.45662C13.5025 2.45662 13.1575 3.04912 13.0825 3.18412C13.045 3.25162 12.94 3.24412 12.91 3.19162C12.835 3.06412 12.49 2.45662 12.49 2.45662C12.4 2.30662 12.22 2.21662 12.055 2.26162C10.24 2.68162 8.87505 4.30162 8.87505 6.25162C8.87505 6.81412 9.03255 7.34662 9.28005 7.85662C8.87505 7.45912 8.41755 7.15162 7.88505 6.97912C6.02505 6.37162 4.06755 7.16662 3.10005 8.76412C3.01005 8.91412 3.03255 9.10912 3.15255 9.24412C3.15255 9.24412 3.61005 9.75412 3.71505 9.86662C3.76755 9.91912 3.73005 10.0241 3.66255 10.0391L2.83755 10.2116C2.66505 10.2491 2.53005 10.3916 2.51505 10.5641C2.43545 11.4882 2.67077 12.4121 3.18275 13.1855C3.69473 13.9589 4.45327 14.5364 5.33505 14.8241C5.87505 14.9966 6.43005 15.0191 7.00005 14.9291C6.49005 15.1916 6.04005 15.5366 5.71005 15.9941C4.56255 17.5691 4.71255 19.6766 5.93505 21.0941C6.04755 21.2291 6.24255 21.2666 6.40755 21.1916C6.40755 21.1916 7.03005 20.9141 7.17255 20.8466C7.24005 20.8166 7.32255 20.8766 7.31505 20.9441L7.22505 21.7841C7.21005 21.9566 7.30005 22.1366 7.46505 22.2041C9.19005 22.9241 11.2375 22.4141 12.385 20.8391C12.715 20.3816 12.9025 19.8641 13 19.3016C13.0975 19.8641 13.285 20.3891 13.615 20.8391C14.7625 22.4141 16.81 22.9241 18.535 22.2041C18.7 22.1366 18.79 21.9641 18.775 21.7841C18.775 21.7841 18.7 21.1016 18.685 20.9516C18.6775 20.8766 18.76 20.8166 18.8275 20.8466L19.6 21.1916C19.7575 21.2666 19.96 21.2291 20.0725 21.0941C21.295 19.6766 21.445 17.5691 20.2975 15.9941C19.9675 15.5366 19.5175 15.1991 19.0075 14.9291C19.5775 15.0191 20.1325 14.9966 20.6725 14.8241ZM14.3755 13.9661L14.9403 14.7461C15.1045 14.7292 15.2698 14.7669 15.4104 14.8534C15.551 14.94 15.6591 15.0705 15.718 15.2248C15.7769 15.379 15.7832 15.5484 15.736 15.7066C15.6888 15.8648 15.5907 16.003 15.4569 16.0998C15.3231 16.1966 15.1612 16.2465 14.9961 16.2419C14.8311 16.2372 14.6722 16.1782 14.5441 16.074C14.416 15.9699 14.3258 15.8263 14.2876 15.6657C14.2494 15.5051 14.2653 15.3363 14.3328 15.1856L13.768 14.4064C13.5285 14.5148 13.2685 14.5708 13.0055 14.5705C12.7425 14.5702 12.4827 14.5138 12.2433 14.4049L11.6748 15.1871C11.7419 15.338 11.7574 15.5067 11.7188 15.6673C11.6802 15.8278 11.5898 15.9711 11.4614 16.075C11.3331 16.1788 11.1741 16.2375 11.009 16.2418C10.844 16.246 10.6822 16.1958 10.5486 16.0987C10.4151 16.0016 10.3173 15.8632 10.2704 15.7049C10.2235 15.5466 10.2302 15.3772 10.2894 15.2231C10.3486 15.069 10.457 14.9387 10.5978 14.8525C10.7386 14.7662 10.9039 14.7288 11.068 14.7461L11.6373 13.9639C11.4599 13.7698 11.326 13.54 11.2447 13.29C11.1633 13.04 11.1363 12.7754 11.1655 12.5141L10.2468 12.2164C10.1241 12.3269 9.96838 12.3938 9.80379 12.4067C9.6392 12.4197 9.47493 12.378 9.33646 12.288C9.19799 12.1981 9.09306 12.065 9.03795 11.9094C8.98284 11.7538 8.98062 11.5843 9.03164 11.4273C9.08266 11.2702 9.18406 11.1344 9.32013 11.0409C9.4562 10.9474 9.61932 10.9014 9.78419 10.9101C9.94907 10.9187 10.1065 10.9815 10.232 11.0887C10.3576 11.196 10.4442 11.3416 10.4785 11.5031L11.3965 11.8009C11.5269 11.5719 11.7046 11.3734 11.9177 11.2184C12.1308 11.0635 12.3745 10.9558 12.6325 10.9024V9.93937C12.4896 9.85682 12.3778 9.7294 12.3146 9.57687C12.2515 9.42433 12.2404 9.25522 12.2831 9.09574C12.3258 8.93627 12.42 8.79535 12.551 8.69484C12.682 8.59433 12.8424 8.53986 13.0075 8.53986C13.1726 8.53986 13.3331 8.59433 13.4641 8.69484C13.5951 8.79535 13.6893 8.93627 13.732 9.09574C13.7747 9.25522 13.7636 9.42433 13.7005 9.57687C13.6373 9.7294 13.5255 9.85682 13.3825 9.93937V10.9024C13.9113 11.0111 14.3575 11.3449 14.617 11.7994L15.5283 11.5039C15.5624 11.3423 15.6488 11.1965 15.7742 11.089C15.8996 10.9816 16.0569 10.9186 16.2218 10.9097C16.3867 10.9008 16.5499 10.9466 16.6861 11.0399C16.8223 11.1333 16.9239 11.2689 16.9752 11.4259C17.0264 11.5829 17.0244 11.7524 16.9694 11.9081C16.9145 12.0638 16.8097 12.1971 16.6713 12.2872C16.5329 12.3772 16.3687 12.4191 16.204 12.4063C16.0394 12.3935 15.8836 12.3268 15.7608 12.2164L14.8488 12.5134C14.8783 12.7754 14.8513 13.0407 14.7697 13.2914C14.6881 13.5421 14.5537 13.7717 14.3755 13.9661Z" fill="#835370"/>
<path d="M20.6725 14.8241C22.525 14.2241 23.6425 12.4316 23.4925 10.5641C23.4843 10.4784 23.4483 10.3976 23.3902 10.334C23.332 10.2704 23.2547 10.2275 23.17 10.2116C23.17 10.2116 22.5025 10.0691 22.3525 10.0391C22.2775 10.0241 22.2475 9.92662 22.2925 9.87412C22.39 9.76912 22.855 9.24412 22.855 9.24412C22.975 9.11662 22.9975 8.91412 22.9075 8.76412C21.94 7.16662 19.9825 6.37162 18.1225 6.97912C17.59 7.15162 17.125 7.46662 16.72 7.86412C16.975 7.35412 17.125 6.82162 17.125 6.25912C17.125 4.30912 15.7675 2.68912 13.945 2.26162C13.8602 2.24446 13.7721 2.25398 13.6928 2.2889C13.6136 2.32382 13.5471 2.38241 13.5025 2.45662C13.5025 2.45662 13.1575 3.04912 13.0825 3.18412C13.045 3.25162 12.94 3.24412 12.91 3.19162C12.835 3.06412 12.49 2.45662 12.49 2.45662C12.4 2.30662 12.22 2.21662 12.055 2.26162C10.24 2.68162 8.87505 4.30162 8.87505 6.25162C8.87505 6.81412 9.03255 7.34662 9.28005 7.85662C8.87505 7.45912 8.41755 7.15162 7.88505 6.97912C6.02505 6.37162 4.06755 7.16662 3.10005 8.76412C3.01005 8.91412 3.03255 9.10912 3.15255 9.24412C3.15255 9.24412 3.61005 9.75412 3.71505 9.86662C3.76755 9.91912 3.73005 10.0241 3.66255 10.0391L2.83755 10.2116C2.66505 10.2491 2.53005 10.3916 2.51505 10.5641C2.43545 11.4882 2.67077 12.4121 3.18275 13.1855C3.69473 13.9589 4.45327 14.5364 5.33505 14.8241C5.87505 14.9966 6.43005 15.0191 7.00005 14.9291C6.49005 15.1916 6.04005 15.5366 5.71005 15.9941C4.56255 17.5691 4.71255 19.6766 5.93505 21.0941C6.04755 21.2291 6.24255 21.2666 6.40755 21.1916C6.40755 21.1916 7.03005 20.9141 7.17255 20.8466C7.24005 20.8166 7.32255 20.8766 7.31505 20.9441L7.22505 21.7841C7.21005 21.9566 7.30005 22.1366 7.46505 22.2041C9.19005 22.9241 11.2375 22.4141 12.385 20.8391C12.715 20.3816 12.9025 19.8641 13 19.3016C13.0975 19.8641 13.285 20.3891 13.615 20.8391C14.7625 22.4141 16.81 22.9241 18.535 22.2041C18.7 22.1366 18.79 21.9641 18.775 21.7841C18.775 21.7841 18.7 21.1016 18.685 20.9516C18.6775 20.8766 18.76 20.8166 18.8275 20.8466L19.6 21.1916C19.7575 21.2666 19.96 21.2291 20.0725 21.0941C21.295 19.6766 21.445 17.5691 20.2975 15.9941C19.9675 15.5366 19.5175 15.1991 19.0075 14.9291C19.5775 15.0191 20.1325 14.9966 20.6725 14.8241ZM14.3755 13.9661L14.9403 14.7461C15.1045 14.7292 15.2698 14.7669 15.4104 14.8534C15.551 14.94 15.6591 15.0705 15.718 15.2248C15.7769 15.379 15.7832 15.5484 15.736 15.7066C15.6888 15.8648 15.5907 16.003 15.4569 16.0998C15.3231 16.1966 15.1612 16.2465 14.9961 16.2419C14.8311 16.2372 14.6722 16.1782 14.5441 16.074C14.416 15.9699 14.3258 15.8263 14.2876 15.6657C14.2494 15.5051 14.2653 15.3363 14.3328 15.1856L13.768 14.4064C13.5285 14.5148 13.2685 14.5708 13.0055 14.5705C12.7425 14.5702 12.4827 14.5138 12.2433 14.4049L11.6748 15.1871C11.7419 15.338 11.7574 15.5067 11.7188 15.6673C11.6802 15.8278 11.5898 15.9711 11.4614 16.075C11.3331 16.1788 11.1741 16.2375 11.009 16.2418C10.844 16.246 10.6822 16.1958 10.5486 16.0987C10.4151 16.0016 10.3173 15.8632 10.2704 15.7049C10.2235 15.5466 10.2302 15.3772 10.2894 15.2231C10.3486 15.069 10.457 14.9387 10.5978 14.8525C10.7386 14.7662 10.9039 14.7288 11.068 14.7461L11.6373 13.9639C11.4599 13.7698 11.326 13.54 11.2447 13.29C11.1633 13.04 11.1363 12.7754 11.1655 12.5141L10.2468 12.2164C10.1241 12.3269 9.96838 12.3938 9.80379 12.4067C9.6392 12.4197 9.47493 12.378 9.33646 12.288C9.19799 12.1981 9.09306 12.065 9.03795 11.9094C8.98284 11.7538 8.98062 11.5843 9.03164 11.4273C9.08266 11.2702 9.18406 11.1344 9.32013 11.0409C9.4562 10.9474 9.61932 10.9014 9.78419 10.9101C9.94907 10.9187 10.1065 10.9815 10.232 11.0887C10.3576 11.196 10.4442 11.3416 10.4785 11.5031L11.3965 11.8009C11.5269 11.5719 11.7046 11.3734 11.9177 11.2184C12.1308 11.0635 12.3745 10.9558 12.6325 10.9024V9.93937C12.4896 9.85682 12.3778 9.7294 12.3146 9.57687C12.2515 9.42433 12.2404 9.25522 12.2831 9.09574C12.3258 8.93627 12.42 8.79535 12.551 8.69484C12.682 8.59433 12.8424 8.53986 13.0075 8.53986C13.1726 8.53986 13.3331 8.59433 13.4641 8.69484C13.5951 8.79535 13.6893 8.93627 13.732 9.09574C13.7747 9.25522 13.7636 9.42433 13.7005 9.57687C13.6373 9.7294 13.5255 9.85682 13.3825 9.93937V10.9024C13.9113 11.0111 14.3575 11.3449 14.617 11.7994L15.5283 11.5039C15.5624 11.3423 15.6488 11.1965 15.7742 11.089C15.8996 10.9816 16.0569 10.9186 16.2218 10.9097C16.3867 10.9008 16.5499 10.9466 16.6861 11.0399C16.8223 11.1333 16.9239 11.2689 16.9752 11.4259C17.0264 11.5829 17.0244 11.7524 16.9694 11.9081C16.9145 12.0638 16.8097 12.1971 16.6713 12.2872C16.5329 12.3772 16.3687 12.4191 16.204 12.4063C16.0394 12.3935 15.8836 12.3268 15.7608 12.2164L14.8488 12.5134C14.8783 12.7754 14.8513 13.0407 14.7697 13.2914C14.6881 13.5421 14.5537 13.7717 14.3755 13.9661Z" stroke="white" stroke-width="4" mask="url(#path-3-outside-2_138_8286)"/>
</svg>
